<?xml version="1.0" encoding="utf-8"?>
<!-- Svg Vector Icons : http://www.onlinewebfonts.com/icon -->
<!DOCTYPE svg PUBLIC "-//W3C//DTD SVG 1.1//EN" "http://www.w3.org/Graphics/SVG/1.1/DTD/svg11.dtd">
<svg version="1.1" xmlns="http://www.w3.org/2000/svg" xmlns:xlink="http://www.w3.org/1999/xlink" x="0px" y="0px" viewBox="0 0 256 256" enable-background="new 0 0 256 256" xml:space="preserve">
<metadata> Svg Vector Icons : http://www.onlinewebfonts.com/icon </metadata>
<g><g><g><path fill="#000000" d="M204.9,88.5c-1,0.8-1.8,2.8-1.4,3.9c0.1,0.5,7.2,7.8,15.7,16.3l15.4,15.5h-18.1c-10.4,0-18.5,0.2-18.9,0.4c-1,0.6-1.6,1.9-4.8,10.5c-2.7,7.4-5.9,13.9-6.7,13.6c-1.3-0.4-4-6.6-9.4-21.3c-5.1-14-9.1-19-14.6-18c-4.1,0.7-7.6,6.1-12.3,18.7c-5.3,14.5-7.9,20.2-9.1,20.6c-0.9,0.3-4.1-6.6-7.9-16.9c-5.6-15.3-8.1-19.7-11.9-21.7c-2.2-1.2-3.7-1.2-6,0c-3.8,1.9-6,5.9-11.6,20.8c-4.2,11-6.6,16.5-7.7,17.4c-0.6,0.5-0.9,0.4-1.9-1.2c-1.2-1.7-4.4-9.7-8-19.5c-0.9-2.6-2.7-6.8-4-9.4c-4.4-9.2-9.8-11.4-15-6.2c-2.2,2.2-5.2,8.4-8.5,17.5c-4.9,13.6-7.7,19.6-8.8,19.2c-1-0.3-3.6-5.9-7.3-16c-4.6-12.4-7.4-18.3-9.8-20.7c-4.9-4.9-10.3-3-14.4,5c-2.3,4.4-8,19.7-8,21.4c0,2.8,3.9,4.5,6,2.7c0.5-0.4,2-3.7,3.4-7.6c2.9-8.1,6.8-16.5,7.6-16.2c1.1,0.4,3.7,6.2,7.8,17c5,13.4,7,17.3,9.8,20c3.6,3.4,7,3.3,10.6-0.3c2.5-2.4,4.8-7.4,9.4-19.8c3.8-10.3,6.7-16.6,7.8-16.9c0.8-0.2,4.8,8.3,8.3,18.1c5,13.9,7.7,18.6,11.5,20.5c2.2,1.2,3.7,1.2,6,0c3.8-2,6.2-6.1,11.9-21.2c4.1-10.8,5.5-14.2,6.9-16.2l1-1.4l1.1,1.4c1.3,1.6,3.8,7.5,7.9,18.6c4.8,13,7.1,16.9,11,18.9c2.3,1.1,3.4,1.1,5.9-0.1c3.8-1.9,6.1-6.1,11.8-21.3c3.9-10.5,6.8-17,7.8-17.3c1.1-0.4,4,5.8,9.2,20.2c4.5,12.3,7.8,17.6,11.7,18.9c5.7,1.9,9.8-3,15.6-18.4l2.2-6.1l16.3-0.1l16.3-0.1l-15.4,15.5c-8.5,8.5-15.6,15.9-15.7,16.4c-0.4,1,0.4,3.1,1.4,3.9c0.4,0.4,1.4,0.7,2.2,0.7c1.2,0,3.6-2.2,19.7-18.3c14-14,18.4-18.7,18.8-19.9c1.1-3.8,1.4-3.5-18.6-23.5c-16.3-16.3-18.7-18.5-19.9-18.5C206.4,87.9,205.3,88.2,204.9,88.5z"/></g></g></g>
</svg>